<svg xmlns="http://www.w3.org/2000/svg" viewBox="0 0 80 80" role="img" aria-label="Creative"><defs><linearGradient id="pt1s" x1="0" y1="0" x2=".8" y2="1"><stop stop-color="#fff"/><stop offset=".36" stop-color="#dce6ef"/><stop offset=".66" stop-color="#98acbd"/><stop offset="1" stop-color="#f5f9fc"/></linearGradient><linearGradient id="pt1b" x1="0" y1="0" x2="0" y2="1"><stop stop-color="#54687c"/><stop offset=".48" stop-color="#253447"/><stop offset="1" stop-color="#0c1727"/></linearGradient><linearGradient id="pt1l" x2="0" y2="1"><stop stop-color="#d0eddf"/><stop offset="1" stop-color="#718f83"/></linearGradient></defs><rect x="10" y="12" width="60" height="57" rx="22" fill="url(#pt1b)" stroke="#8ba5bf" stroke-width=".7"/><path d="M19 20Q40 10 61 20" fill="none" stroke="#d8edff" stroke-opacity=".45" stroke-width="1.5" stroke-linecap="round"/><g transform="translate(40 40) scale(1.75)"><g fill="url(#pt1s)" stroke="url(#pt1s)" stroke-width="1.65" stroke-linecap="round" stroke-linejoin="round"><path d="M9 2C8 8 3 11-3 9C-13 6-11 -7-2 -9C5 -11 12 -6 9 -1C7 2 3 -2 3 2C3 5 7 4 9 2Z" fill="none"/><circle cx="-5" cy="-3" r="0.8" fill="url(#pt1s)"/><circle cx="0" cy="-6" r="0.8" fill="url(#pt1s)"/></g></g><circle cx="40" cy="62" r="1.5" fill="#b8d7ad"/></svg>